<svg width="115" height="44" xmlns="http://www.w3.org/2000/svg" preserveAspectRatio="xMidYMid">
 <defs>
  <style>.cls-2 {
        fill: #3399cc;
      }</style>
 </defs>
 <g>
  <title>Layer 1</title>
  <path d="m109.988998,21c0,0 -6.488998,-3.416 -6.488998,-3.416c0,0 -6.488998,3.416 -6.488998,3.416c0,0 1.238998,-7.236 1.238998,-7.236c0,0 -5.25,-5.125 -5.25,-5.125c0,0 7.254997,-1.055 7.254997,-1.055c0,0 3.245003,-6.584 3.245003,-6.584c0,0 3.245003,6.584 3.245003,6.584c0,0 7.254997,1.055 7.254997,1.055c0,0 -5.25,5.125 -5.25,5.125c0,0 1.238998,7.236 1.238998,7.236zm-23,22c0,0 -6.488998,-3.416 -6.488998,-3.416c0,0 -6.488998,3.416 -6.488998,3.416c0,0 1.238998,-7.236 1.238998,-7.236c0,0 -5.25,-5.125 -5.25,-5.125c0,0 7.254997,-1.055 7.254997,-1.055c0,0 3.245003,-6.584 3.245003,-6.584c0,0 3.245003,6.584 3.245003,6.584c0,0 7.254997,1.055 7.254997,1.055c0,0 -5.25,5.125 -5.25,5.125c0,0 1.238998,7.236 1.238998,7.236zm-0.118996,-11.017c0,0 -4.401001,-0.639999 -4.401001,-0.639999c0,0 -1.969002,-3.995001 -1.969002,-3.995001c0,0 -1.968002,3.995001 -1.968002,3.995001c0,0 -4.402,0.639999 -4.402,0.639999c0,0 3.185013,3.108999 3.185013,3.108999c0,0 -0.751999,4.389999 -0.751999,4.389999c0,0 3.936996,-2.072998 3.936996,-2.072998c0,0 3.937004,2.072998 3.937004,2.072998c0,0 -0.751999,-4.389999 -0.751999,-4.389999c0,0 3.185005,-3.108999 3.185005,-3.108999l-0.000015,0zm0.118996,-10.983c0,0 -6.488998,-3.416 -6.488998,-3.416c0,0 -6.488998,3.416 -6.488998,3.416c0,0 1.238998,-7.236 1.238998,-7.236c0,0 -5.25,-5.125 -5.25,-5.125c0,0 7.254997,-1.055 7.254997,-1.055c0,0 3.245003,-6.584 3.245003,-6.584c0,0 3.245003,6.584 3.245003,6.584c0,0 7.254997,1.055 7.254997,1.055c0,0 -5.25,5.125 -5.25,5.125c0,0 1.238998,7.236 1.238998,7.236zm-23,22c0,0 -6.488998,-3.416 -6.488998,-3.416c0,0 -6.488998,3.416 -6.488998,3.416c0,0 1.238998,-7.236 1.238998,-7.236c0,0 -5.25,-5.125 -5.25,-5.125c0,0 7.255001,-1.055 7.255001,-1.055c0,0 3.244999,-6.584 3.244999,-6.584c0,0 3.244999,6.584 3.244999,6.584c0,0 7.255001,1.055 7.255001,1.055c0,0 -5.25,5.125 -5.25,5.125c0,0 1.238998,7.236 1.238998,7.236zm-0.118999,-11.017c0,0 -4.400997,-0.639999 -4.400997,-0.639999c0,0 -1.969002,-3.995001 -1.969002,-3.995001c0,0 -1.967999,3.995001 -1.967999,3.995001c0,0 -4.402,0.639999 -4.402,0.639999c0,0 3.184998,3.108999 3.184998,3.108999c0,0 -0.751999,4.389999 -0.751999,4.389999c0,0 3.937,-2.072998 3.937,-2.072998c0,0 3.937,2.072998 3.937,2.072998c0,0 -0.751999,-4.389999 -0.751999,-4.389999c0,0 3.184998,-3.108999 3.184998,-3.108999zm0.118999,-10.983c0,0 -6.488998,-3.416 -6.488998,-3.416c0,0 -6.488998,3.416 -6.488998,3.416c0,0 1.238998,-7.236 1.238998,-7.236c0,0 -5.25,-5.125 -5.25,-5.125c0,0 7.255001,-1.055 7.255001,-1.055c0,0 3.244999,-6.584 3.244999,-6.584c0,0 3.244999,6.584 3.244999,6.584c0,0 7.255001,1.055 7.255001,1.055c0,0 -5.25,5.125 -5.25,5.125c0,0 1.238998,7.236 1.238998,7.236zm-23,22c0,0 -6.488998,-3.416 -6.488998,-3.416c0,0 -6.489,3.416 -6.489,3.416c0,0 1.239,-7.236 1.239,-7.236c0,0 -5.25,-5.125 -5.25,-5.125c0,0 7.254999,-1.055 7.254999,-1.055c0,0 3.245001,-6.584 3.245001,-6.584c0,0 3.244999,6.584 3.244999,6.584c0,0 7.255001,1.055 7.255001,1.055c0,0 -5.25,5.125 -5.25,5.125c0,0 1.238998,7.236 1.238998,7.236zm-0.118999,-11.017c0,0 -4.400997,-0.639999 -4.400997,-0.639999c0,0 -1.969002,-3.995001 -1.969002,-3.995001c0,0 -1.967999,3.995001 -1.967999,3.995001c0,0 -4.402002,0.639999 -4.402002,0.639999c0,0 3.185001,3.108999 3.185001,3.108999c0,0 -0.752001,4.389999 -0.752001,4.389999c0,0 3.937,-2.072998 3.937,-2.072998c0,0 3.937,2.072998 3.937,2.072998c0,0 -0.751999,-4.389999 -0.751999,-4.389999c0,0 3.184998,-3.108999 3.184998,-3.108999zm0.118999,-10.983c0,0 -6.488998,-3.416 -6.488998,-3.416c0,0 -6.489,3.416 -6.489,3.416c0,0 1.239,-7.236 1.239,-7.236c0,0 -5.25,-5.125 -5.25,-5.125c0,0 7.254999,-1.055 7.254999,-1.055c0,0 3.245001,-6.584 3.245001,-6.584c0,0 3.244999,6.584 3.244999,6.584c0,0 7.255001,1.055 7.255001,1.055c0,0 -5.25,5.125 -5.25,5.125c0,0 1.238998,7.236 1.238998,7.236zm-22.999998,22c0,0 -6.489,-3.416 -6.489,-3.416c0,0 -6.489,3.416 -6.489,3.416c0,0 1.239,-7.236 1.239,-7.236c0,0 -5.25,-5.125 -5.25,-5.125c0,0 7.255,-1.055 7.255,-1.055c0,0 3.245,-6.584 3.245,-6.584c0,0 3.245,6.584 3.245,6.584c0,0 7.255,1.055 7.255,1.055c0,0 -5.25,5.125 -5.25,5.125c0,0 1.239,7.236 1.239,7.236zm-0.118999,-11.017c0,0 -4.401001,-0.639999 -4.401001,-0.639999c0,0 -1.969,-3.995001 -1.969,-3.995001c0,0 -1.968,3.995001 -1.968,3.995001c0,0 -4.401999,0.639999 -4.401999,0.639999c0,0 3.184999,3.108999 3.184999,3.108999c0,0 -0.751999,4.389999 -0.751999,4.389999c0,0 3.937,-2.072998 3.937,-2.072998c0,0 3.937,2.072998 3.937,2.072998c0,0 -0.752,-4.389999 -0.752,-4.389999c0,0 3.185,-3.108999 3.185,-3.108999zm0.118999,-10.983c0,0 -6.489,-3.416 -6.489,-3.416c0,0 -6.489,3.416 -6.489,3.416c0,0 1.239,-7.236 1.239,-7.236c0,0 -5.25,-5.125 -5.25,-5.125c0,0 7.255,-1.055 7.255,-1.055c0,0 3.245,-6.584 3.245,-6.584c0,0 3.245,6.584 3.245,6.584c0,0 7.255,1.055 7.255,1.055c0,0 -5.25,5.125 -5.25,5.125c0,0 1.239,7.236 1.239,7.236zm82.265997,8.584c0,0 3.245003,-6.584 3.245003,-6.584c0,0 3.245003,6.584 3.245003,6.584c0,0 7.254997,1.055 7.254997,1.055c0,0 -5.25,5.125 -5.25,5.125c0,0 1.238998,7.236 1.238998,7.236c0,0 -6.488998,-3.416 -6.488998,-3.416c0,0 -6.488998,3.416 -6.488998,3.416c0,0 1.238998,-7.236 1.238998,-7.236c0,0 -5.25,-5.125 -5.25,-5.125c0,0 7.254997,-1.055 7.254997,-1.055zm-0.691986,9.897999c0,0 3.936996,-2.072998 3.936996,-2.072998c0,0 3.937004,2.072998 3.937004,2.072998c0,0 -0.751999,-4.389999 -0.751999,-4.389999c0,0 3.185005,-3.108999 3.185005,-3.108999c0,0 -4.401001,-0.639999 -4.401001,-0.639999c0,0 -1.968987,-3.995001 -1.968987,-3.995001c0,0 -1.968002,3.995001 -1.968002,3.995001c0,0 -4.402,0.639999 -4.402,0.639999c0,0 3.185013,3.108999 3.185013,3.108999c0,0 -0.752014,4.389999 -0.752014,4.389999l-0.000015,0z" id="path-1" class="cls-2" fill-rule="evenodd" fill="black"/>
 </g>
</svg>